<svg version="1.2" xmlns="http://www.w3.org/2000/svg" viewBox="0 0 190 187" width="190" height="187"><defs><linearGradient id="P" gradientUnits="userSpaceOnUse"/><linearGradient id="g1" x2="1" href="#P" gradientTransform="matrix(-82.983,0,0,-62.288,162.042,167.072)"><stop stop-color="#346696" stop-opacity="0"/><stop offset="1" stop-opacity="1"/></linearGradient><linearGradient id="g2" x2="1" href="#P" gradientTransform="matrix(31.082,0,0,54.872,111.487,167.016)"><stop stop-color="#346696" stop-opacity="0"/><stop offset=".13" stop-color="#346696" stop-opacity=".04"/><stop offset=".32" stop-color="#346696" stop-opacity=".15"/><stop offset=".52" stop-color="#346696" stop-opacity=".34"/><stop offset=".75" stop-color="#346696" stop-opacity=".6"/><stop offset=".99" stop-color="#346696" stop-opacity=".93"/><stop offset="1" stop-color="#346696" stop-opacity=".95"/></linearGradient><linearGradient id="g3" x2="1" href="#P" gradientTransform="matrix(0,-111.458,46.681,0,174.201,104.821)"><stop stop-color="#346696" stop-opacity="0"/><stop offset="1" stop-opacity="1"/></linearGradient><linearGradient id="g4" x2="1" href="#P" gradientTransform="matrix(-5.004,13.793,-17.746,-6.438,177.224,44.923)"><stop stop-color="#346696" stop-opacity="0"/><stop offset=".24" stop-color="#346696" stop-opacity=".33"/><stop offset=".47" stop-color="#346696" stop-opacity=".6"/><stop offset=".68" stop-color="#346696" stop-opacity=".79"/><stop offset=".87" stop-color="#346696" stop-opacity=".91"/><stop offset="1" stop-color="#346696" stop-opacity=".95"/></linearGradient></defs><style>.a{fill:#83e1fd}.b{fill:#15283d}.c{fill:#346696}.d{fill:url(#g1)}.e{fill:url(#g2)}.f{fill:url(#g3)}.g{fill:url(#g4)}</style><path class="a" d="m139.7 30.2c-6.6 0.2-95.9 0.3-95.9 0.3 0 0-15.1 76.8-13.8 78.7 1.3 1.9 8.9 57.4 8.9 57.4l7.2 11.8 12.8 6.9 29.3-0.1v-1.7l67.5-22.2c0 0 11.6-14.2 12.4-16.1 0.8-1.9 7.6-93.5 7.6-93.5 0 0-29.4-21.7-36-21.5z"/><path class="b" d="m151.2 49.9c0 0 9.5 1.9 9.6 8.3 0 6.4 7-5.7 7-5.7l-9.4-14.7-6.2 3.8c0 0-1 8.3-1 8.3z"/><path class="c" d="m160.6 3.6l0.3 126.5q-0.1 1.1-0.1 2.6c0 14.8-14 16.1-17.6 16.2l-56 0.2 0.1 36.1 46.4-0.1q1.6 0 3.2-0.1c0.2 0 0.4 0.1 0.6 0.1l38.1-0.1c6.9-0.1 12.5-5 12.5-11l-0.4-146.9-27.1-23.5z"/><path class="b" d="m160.6 3.6l-156.4 0.4 0.5 181.4 54.2-0.1-0.2-62.9 59-0.2c5.3 0 9.5-3.8 9.5-8.4v-23.8c-0.1-4.6-4.3-8.3-9.6-8.3l-57.2 0.1v-31.6l84.5-0.3c4.1 0.2 15.8 2 15.9 15.9l-0.1-15.9-0.1-46.3z"/><path fill-rule="evenodd" class="d" d="m135.4 148.9l0.1 36.2-48.2 0.1-0.1-36.1z"/><path fill-rule="evenodd" class="e" d="m141.9 148.9l0.1 36.1-20.4 0.1-0.1-36.1z"/><path fill-rule="evenodd" class="f" d="m160.7 49.4l-0.1-45.1 27.1 22.7 0.1 42.2-27.1-19.8z"/><path fill-rule="evenodd" class="g" d="m160.7 50.5v-18.9l27 17.5 0.1 25.6-27.1-24.2z"/><path fill-rule="evenodd" class="c" d="m175.6 185l12.5-0.1v-13.9l-10.8 9.4-1.7 4.6z"/></svg>