<svg version="1.2" xmlns="http://www.w3.org/2000/svg" viewBox="0 0 251 159" width="251" height="159"><defs><linearGradient id="P" gradientUnits="userSpaceOnUse"/><linearGradient id="g1" x2="1" href="#P" gradientTransform="matrix(-34.13,0,0,-25.542,152.72,71.17)"><stop stop-color="#346696" stop-opacity="0"/><stop offset="1" stop-opacity="1"/></linearGradient><linearGradient id="g2" x2="1" href="#P" gradientTransform="matrix(12.75,0,0,22.571,131.97,71.17)"><stop stop-color="#346696" stop-opacity="0"/><stop offset=".13" stop-color="#346696" stop-opacity=".04"/><stop offset=".32" stop-color="#346696" stop-opacity=".15"/><stop offset=".52" stop-color="#346696" stop-opacity=".34"/><stop offset=".75" stop-color="#346696" stop-opacity=".6"/><stop offset=".99" stop-color="#346696" stop-opacity=".93"/><stop offset="1" stop-color="#346696" stop-opacity=".95"/></linearGradient><linearGradient id="g3" x2="1" href="#P" gradientTransform="matrix(0,-45.93,19.107,0,157.92,45.65)"><stop stop-color="#346696" stop-opacity="0"/><stop offset="1" stop-opacity="1"/></linearGradient><linearGradient id="g4" x2="1" href="#P" gradientTransform="matrix(-2.06,5.69,-7.275,-2.634,159.15,20.96)"><stop stop-color="#346696" stop-opacity="0"/><stop offset=".24" stop-color="#346696" stop-opacity=".33"/><stop offset=".47" stop-color="#346696" stop-opacity=".6"/><stop offset=".68" stop-color="#346696" stop-opacity=".79"/><stop offset=".87" stop-color="#346696" stop-opacity=".91"/><stop offset="1" stop-color="#346696" stop-opacity=".95"/></linearGradient></defs><style>.a{fill:#15283d}.b{fill:#346696}.c{fill:#83e1fd}.d{fill:url(#g1)}.e{fill:url(#g2)}.f{fill:url(#g3)}.g{fill:url(#g4)}</style><path class="a" d="m4.1 87.3h33.2v10.1h-21.7v7.1h19.6v9.5h-19.6v14.9h-11.5z"/><path class="a" d="m50.3 87h11.1l17.7 41.9h-12.3l-3-7.4h-16.1l-2.9 7.4h-12.1c0 0 17.7-41.9 17.6-41.9zm10.1 25.5l-4.6-11.8-4.7 11.8z"/><path fill-rule="evenodd" class="a" d="m93.2 87.3v41.6h-11.6v-41.6z"/><path class="a" d="m99 87.3h19.7c6.3 0 10.7 1.7 13.5 4.5 2.4 2.4 3.7 5.6 3.7 9.7v0.1c0 6.4-3.4 10.6-8.6 12.8l9.9 14.5h-13.3l-8.3-12.6h-5.1v12.6h-11.5zm19.1 19.9c3.9 0 6.2-1.9 6.2-4.9v-0.1c0-3.3-2.4-5-6.2-5h-7.6v10h7.6z"/><path class="b" d="m157.1 115.5h-8.2v13.4h-7.3v-41.6h16.3c9.7 0 15.8 5.5 15.8 14 0 9.4-7.4 14.2-16.6 14.2zm0.3-21.5h-8.5v14.9h8.5c5.5 0 8.9-3 8.9-7.5 0-4.9-3.5-7.4-8.9-7.4z"/><path class="b" d="m215 128.9h-7.7l-4.2-10.1h-19.6l-4.3 10.1h-7.5l18.3-41.9h6.8l18.3 41.9zm-21.8-33.1l-7.1 16.6h14.3z"/><path class="b" d="m233.4 128.9h-7.3v-16.4l-16.5-25.2h8.6l11.6 18.4 11.8-18.4h8.3l-16.5 25z"/><path  d="m80 156q-2.1 0-3.9-0.7-1.8-0.7-3.5-2.2l1.3-1.5q1.4 1.3 2.9 2 1.4 0.6 3.3 0.6c1.3 0 2.2-0.3 3-0.9q1.1-0.9 1.1-2.2 0-0.7-0.3-1.2-0.2-0.5-0.7-0.9-0.5-0.4-1.4-0.7-0.9-0.4-2.4-0.7-1.5-0.3-2.7-0.8-1.1-0.4-1.9-1-0.7-0.6-1.1-1.5-0.4-0.8-0.4-1.9v-0.1q0-1 0.5-1.9 0.4-0.9 1.2-1.6 0.8-0.7 1.9-1 1.1-0.4 2.4-0.4 2 0 3.5 0.5 1.4 0.6 2.8 1.7l-1.1 1.6q-1.3-1.1-2.6-1.5-1.3-0.5-2.7-0.5-1.8 0-2.8 0.9-1 0.8-1 2v0.1q0 0.6 0.2 1.1 0.2 0.5 0.7 1 0.6 0.4 1.5 0.7 1 0.4 2.5 0.7 3 0.7 4.5 1.9 1.4 1.1 1.4 3.2v0.1q0 1.1-0.5 2.1-0.4 0.9-1.2 1.6-0.8 0.7-2 1-1.1 0.4-2.5 0.4z"/><path  d="m105.4 156.1q-1.7 0-3.1-0.6-1.4-0.5-2.4-1.5-1-0.9-1.5-2.4-0.6-1.5-0.6-3.4v-10.5h2.1v10.4q0 2.9 1.4 4.5 1.5 1.6 4.1 1.6c1.8 0 3-0.5 4-1.5q1.5-1.5 1.5-4.5v-10.5h2v10.4q0 1.9-0.5 3.4-0.5 1.5-1.5 2.6-1 1-2.4 1.5-1.4 0.5-3.1 0.5z"/><path fill-rule="evenodd" d="m127.8 137.6v18.2h-2.1v-18.2z"/><path  d="m145.6 139.5h-6.1v-1.9h14.3v1.9h-6.1v16.3h-2.1c0 0 0-16.3 0-16.3z"/><path  d="m165.4 137.6h13.1v1.9h-11.1v6.2h9.9v1.9h-9.9v6.3h11.2v1.9h-13.2v-18.1z"/><path class="c" d="m143.7 14.9c-2.7 0-39.5 0-39.5 0 0 0-6.3 31.5-5.8 32.3 0.5 0.8 3.6 23.7 3.6 23.7l3 4.9 5.2 2.8h12.1v-0.7l27.9-9.1c0 0 4.8-5.8 5.1-6.6 0.3-0.8 3.2-38.4 3.2-38.4 0 0-12.1-9-14.8-8.9z"/><path class="a" d="m148.4 23c0 0 4 0.8 4 3.4 0 2.6 2.9-2.3 2.9-2.3l-3.9-6.1-2.6 1.6-0.4 3.4z"/><path class="b" d="m152.4 3.9v52.1q-0.1 0.4-0.1 1.1c0 6.1-5.8 6.6-7.3 6.6h-23.1v14.9h19.1q0.7 0 1.4 0 0.1 0 0.2 0h15.7c2.9 0 5.2-2 5.2-4.5v-60.4l-11.1-9.8z"/><path class="a" d="m152.4 3.9h-64.5v74.7h22.3v-25.9h24.3c2.2 0 4-1.5 4-3.4v-9.9c0-1.8-1.8-3.4-4-3.4h-23.5v-13h34.8c1.7 0.1 6.6 0.8 6.6 6.5v-6.5c0 0 0-19.1 0-19.1z"/><path fill-rule="evenodd" class="d" d="m141.8 63.7v14.9h-19.9v-14.9z"/><path fill-rule="evenodd" class="e" d="m144.5 63.7v14.9h-8.4v-14.9z"/><path fill-rule="evenodd" class="f" d="m152.4 22.8v-18.6l11.1 9.4v17.4l-11.1-8.2z"/><path fill-rule="evenodd" class="g" d="m152.4 23.3v-7.8l11.1 7.2v10.5l-11.1-9.9z"/><path fill-rule="evenodd" class="b" d="m158.3 78.6h5.2v-5.7l-4.5 3.8-0.7 1.9z"/></svg>